<?xml version="1.0" encoding="UTF-8"?>
<!DOCTYPE svg PUBLIC "-//W3C//DTD SVG 1.1//EN" "http://www.w3.org/Graphics/SVG/1.1/DTD/svg11.dtd">
<!-- Creator: CorelDRAW -->
<svg xmlns="http://www.w3.org/2000/svg" xml:space="preserve" width="290.639mm" height="98.3078mm" version="1.1" style="shape-rendering:geometricPrecision; text-rendering:geometricPrecision; image-rendering:optimizeQuality; fill-rule:evenodd; clip-rule:evenodd"
viewBox="0 0 23433.1 7926.18"
 xmlns:xlink="http://www.w3.org/1999/xlink"
 xmlns:xodm="http://www.corel.com/coreldraw/odm/2003">
 <defs>
  <style type="text/css">
   <![CDATA[
    .fil0 {fill:#898988;fill-rule:nonzero}
    .fil2 {fill:#2D2D2F;fill-rule:nonzero}
    .fil1 {fill:#09604B;fill-rule:nonzero}
   ]]>
  </style>
 </defs>
 <g id="Слой_x0020_1">
  <metadata id="CorelCorpID_0Corel-Layer"/>
  <path class="fil0" d="M6425.51 7855.48c1614.84,0 2684.58,-1059.46 2684.58,-2581.73 0,-1645.68 -1069.74,-2540.51 -2478.87,-2540.51 -514.31,0 -905.12,174.84 -946.26,185.12l205.69 -1666.25 2756.49 0 0 -1203.38 -3815.89 0 -411.39 3836.52 884.48 329.12c0,0 298.39,-380.6 1090.38,-380.6 833.06,0 1337.01,596.58 1337.01,1439.99 0,740.57 -483.31,1419.42 -1316.44,1419.42 -434.85,0 -731.57,-165.32 -932.05,-371.66 -393,-404.44 -395.32,-746.67 -390.75,-1264.77l-1007.52 0 -544.44 0 -1753.22 0 988.23 -1062.35c815.32,-856.59 1185.96,-1367.16 1185.96,-2289.57 0,-1045.95 -823.61,-1704.82 -1968.37,-1704.82 -1383.62,0 -1910.71,955.39 -1993.12,1367.16l0 617.66 1079 0c24.62,-197.65 197.6,-823.55 823.48,-823.55 387.16,0 700.13,247.09 700.13,716.46 0,527.09 -321.2,1013.04 -757.66,1457.79l-1811.91 1844.76 0 1120.07 4012.91 0c83.56,321.59 687.02,1555.12 2379.56,1555.12z"/>
  <path class="fil0" d="M205.95 7898.22l95.58 0c275.44,0 366.4,-223.88 375.78,-524.64l11.63 -419.75 334.96 0 0 944.39 284.56 0 0 -1170.53 -867 0 -14.01 613.23c-7.01,223.83 -58.3,305.46 -195.86,312.47l-25.65 0 0 244.84zm1976.86 27.96c387.09,0 503.69,-207.56 503.69,-207.56l0 -153.88 -205.18 0c0,0 -53.67,125.92 -296.2,125.92 -209.88,0 -319.34,-125.92 -335.67,-324.09l848.74 0c0,0 11.64,-60.62 11.64,-137.56 0,-300.76 -165.59,-529.34 -550.36,-529.34 -382.34,0 -594.52,275.19 -594.52,613.29 0,354.38 207.43,613.23 617.85,613.23zm-324.04 -750.85c30.21,-142.25 114.16,-242.46 300.7,-242.46 186.54,0 275.18,107.28 275.18,242.46l-575.88 0zm1326.66 722.89l282.13 0 0 -935 359.19 0 0 -235.53 -1000.31 0 0 235.53 359 0 0 935z"/>
  <path class="fil1" d="M18150.54 2355.07l139.62 0 0.06 0 84.58 -135.18 175.49 -280.45 0 415.63 0 0 138.77 0 0.13 0 0 -631.29 -0.13 0 0 -0.06 -138.77 0 0 0.06 0 0 -82.47 132.86 -177.6 286.24 0 -419.1 -0.06 0 0 -0.06 -139.62 0 0 0.06 0 631.29zm-4057.71 3157.92l0 784.98c0,14.21 12.15,25.58 26.23,24.49 185.32,-13.63 363.31,-47.69 532.95,-100.85 10.28,-3.15 17.29,-12.73 17.29,-23.46l0 -1923.38c0,-12.54 -9.32,-22.95 -21.72,-24.36 -172.66,-19.22 -349.55,-31.69 -529.67,-36.64 -13.69,-0.39 -25.07,10.74 -25.07,24.49l0 693.19 -307.83 0 0 -693.19c0,-13.88 -11.51,-24.95 -25.2,-24.62 -179.92,4.82 -356.75,17.17 -529.54,36.13 -12.34,1.41 -21.73,11.89 -21.73,24.36l0 1929.42c0,10.74 7.07,20.38 17.49,23.46 168.48,50.91 346.27,83.57 532.81,96.16 14.14,0.97 26.16,-10.28 26.16,-24.49l0 -785.69 307.83 0zm1974.22 -862.18c-59.65,-36.89 -256.21,-147.9 -380.47,-191.49 -11.89,-4.18 -24.82,0.97 -30.21,12.28 -42.75,89.48 -224.28,459.86 -224.28,459.86l-41.14 0 -3.53 -530.31c0,-11.18 -7.72,-21.02 -18.46,-23.66 -169.95,-42.04 -347.1,-76.36 -530.11,-102.72 -14.72,-2.12 -28.03,9.45 -28.03,24.24l0 1829.71c0,17.36 17.67,29.44 33.81,22.76 188.99,-77.91 367.04,-179.73 532.75,-303.15 6.23,-4.63 9.9,-12.02 9.9,-19.8l0 -315.93c105.03,-8.29 217.46,32.59 279.55,93.02 0,0.06 0.06,0.06 0.06,0 125.6,-124.25 257.25,-272.87 366.59,-424.44 7.39,-10.16 5.52,-24.3 -3.93,-32.72 -37.35,-33.56 -84.33,-67.23 -130.68,-93.53l178.12 -372.05c5.85,-11.7 1.15,-25.2 -9.97,-32.08zm-3021.78 -377.77c-219.9,31.11 -431.58,73.6 -632.12,127.27 -7.01,1.87 -12.67,6.63 -15.88,13.12l-246.45 517.39 -40.82 0 0 -403.23c0,-16.91 -16.77,-28.74 -32.72,-23.08 -145.4,51.42 -283.34,109.14 -411.64,173.3 -25.32,12.67 -50.13,25.52 -74.37,38.56 -11.83,6.3 -16.2,21.03 -9.97,32.78 189.69,358.04 419.75,669.79 688.89,919.98 11.96,11.05 31.37,7.39 38.57,-7.2l149.06 -300.19 38.89 0 0 483.51c0,7.91 3.67,15.24 10.16,19.93 164.94,121.23 342.61,221.12 532.87,296.84 16,6.36 33.49,-5.66 33.49,-22.95l0 -1841.81c0,-14.84 -13.24,-26.28 -27.96,-24.23zm10101.2 210.32l0 0.06 139.68 0 0 -631.35 0 0 -218.04 0 0 0 -6.68 0.06 0 0 -6.68 0.19 0 0 -6.56 0.25 0 0 -6.55 0.39 0 0 -6.36 0.52 -0.13 0 -6.3 0.65 0 0 -6.24 0.7 0 0 -6.17 0.84 -0.06 0 -5.98 0.9 -0.12 0 -5.92 1.02 0 0 -5.91 1.16 0 0 -5.79 1.28 -0.06 0 -5.72 1.35c-17.17,4.24 -33.04,9.89 -47.57,16.9l-0.13 0 -4.76 2.38 -0.06 0 -4.63 2.44c-62.22,33.69 -98.03,93.08 -98.03,170.98 0,82.47 49.56,144.76 116.99,170.02l-140.64 193.54 0 65.69 0.06 0 0 0.06 116.15 0 157.42 -227.29 64.66 0 0 227.23 0.13 0zm-77.46 -339.27c-60.68,0 -97.64,-36.96 -97.64,-89.22 0,-51.29 35.42,-86.65 97.64,-86.65l79.9 0 0 175.87 -79.9 0zm-766.72 339.27l0 0 260.08 -415.51 0 415.51 0.06 0 138.72 0 0.06 0 0 -631.35 -138.78 0 0 0.06 -0.06 0 -260.08 419.1 0 -419.17 -139.61 0 0 0.06 -0.06 0 0 631.29 0.06 0 139.61 0zm-672.49 0l0.19 0 0 -265.16 247.28 0 0 265.16 0.19 0 139.49 0 0.13 0 0 -631.35 -139.62 0 0 0.06 -0.19 0 0 248.31 -247.28 0 0 -248.38 -139.68 0 0 0.06 -0.19 0 0 631.29 0.19 0 139.48 0zm-690.68 0l48.02 -133.83 240.34 0 48.85 133.83 0.32 0 120.91 0 0.26 0 0 -67.3 -213.79 -564.05 -142.19 0 0 0.06 -0.32 0 -214.56 572.34 0 58.95 0.19 0 111.72 0 0.26 0zm86.78 -248.31l82.21 -231.79 82.41 231.79 -164.62 0zm-669.41 248.31l0.39 0 0 -512.56 238.54 0 0 512.56 0.45 0 139.29 0 0.52 0 0 -631.35 -518.47 0 0 0.06 -0.52 0 0 631.29 0.52 0 139.29 0zm-565.59 -133.83l0.13 0 141.22 -296.71 0 430.54 138.91 0 0 -0.06 0.19 0 0 -631.22 -0.19 0 0 0 -170.92 0 -149.64 321.26 -153.12 -321.26 -0.13 0 -0.06 0 -171.69 0 0 631.29 131.32 0 0 -0.06 0.13 0 0 -430.48 140.39 296.71 93.46 0zm-791.09 146.43c23.4,0 45.89,-2.12 67.3,-6.24l0 0c5.27,-1.02 10.6,-2.18 15.75,-3.47l0 0c5.27,-1.23 10.42,-2.64 15.42,-4.18l0 0c2.51,-0.71 5.08,-1.48 7.52,-2.31l0 0c2.57,-0.84 5.01,-1.68 7.52,-2.51l0 0c4.89,-1.81 9.77,-3.67 14.53,-5.6l0 0c7.07,-3.02 14.08,-6.23 20.95,-9.71l0 0c2.25,-1.15 4.43,-2.31 6.68,-3.53l0 0c2.25,-1.23 4.5,-2.44 6.62,-3.73l0 0c6.55,-3.79 12.92,-7.84 19.09,-12.09l0.13 0c2.06,-1.48 4.05,-2.89 6.04,-4.37l0 0c10.09,-7.39 19.74,-15.42 28.74,-24.1l0 0c5.4,-5.14 10.61,-10.61 15.56,-16.21l0.06 0c51.68,-58.04 81.19,-138.52 81.19,-232.75 0,-101.95 -35.42,-187.5 -96.81,-245.29l0 0c-8.8,-8.23 -18,-15.95 -27.77,-23.01l-0.97 -0.65 0 0c-1.99,-1.48 -3.98,-2.89 -6.04,-4.31l-0.13 0c-1.99,-1.42 -4.05,-2.77 -6.23,-4.12l0 0c-2.06,-1.35 -4.24,-2.69 -6.3,-3.98l0 0 -0.77 -0.39c-3.93,-2.38 -7.84,-4.63 -11.96,-6.81l-0.45 -0.26 0 0 -0.13 -0.06c-44.61,-23.78 -97.06,-36.83 -155.68,-36.83 -128.95,0 -228.58,63.25 -278.21,165.14l0 0c-10.22,20.83 -18.19,43.32 -23.97,67.17l-0.06 0c-0.71,2.64 -1.23,5.27 -1.87,7.97l0 0c-0.64,2.7 -1.15,5.4 -1.6,8.17l-0.06 0c-1.54,8.09 -2.96,16.46 -4.05,24.87l0 0c-0.65,5.66 -1.29,11.38 -1.73,17.1l0 0c-1.03,11.57 -1.48,23.33 -1.48,35.29l0 0c0,3.09 0,6.1 0.06,9.06l0 0.06c0.06,2.96 0.19,5.97 0.32,8.93l0 0c0.06,3.02 0.26,5.98 0.39,8.87l0 0.06c0.26,2.89 0.45,5.85 0.71,8.75l0 0.06c0.19,2.89 0.44,5.78 0.83,8.68l0 0c0.32,2.89 0.65,5.78 0.9,8.61l0 0c1.09,8.62 2.51,17.04 4.05,25.26l0.06 0c0.45,2.77 1.1,5.53 1.6,8.23l0 0c0.65,2.77 1.16,5.47 1.87,8.16l0.06 0c24.49,102.21 89.35,179.22 181.39,214.57l0 0c9.64,3.72 19.61,7.01 29.95,9.77l0 0.06c4.89,1.28 9.97,2.57 15.04,3.66l0.58 0.13 0 0c2.64,0.58 5.2,1.1 7.9,1.6l0 0c2.7,0.52 5.4,1.03 8.1,1.48l0 0c2.7,0.44 5.47,0.83 8.16,1.22l0 0c2.7,0.39 5.47,0.77 8.23,1.1l0.06 0c2.83,0.32 5.59,0.64 8.35,0.89l0.06 0c2.7,0.26 5.53,0.45 8.43,0.65l0.06 0c2.76,0.26 5.59,0.39 8.48,0.52l0.06 0c2.77,0.13 5.66,0.26 8.61,0.32l0 0c2.96,0.06 5.85,0.06 8.68,0.06l0.13 0zm-101.56 -152.47c-45.58,-36.32 -71.8,-99.44 -71.8,-178.31 0,-94.04 39.4,-165.45 105.48,-193.74l0 0c2.69,-1.16 5.46,-2.25 8.22,-3.28l4.18 -1.48 0 0 4.31 -1.29 0 0 4.31 -1.28 0 0 4.37 -1.1 0.13 0 4.43 -1.02 0 0 4.5 -0.9 0.06 0 4.43 -0.77 0.06 0 4.63 -0.64 0 0 4.69 -0.58 0 0 4.82 -0.39 0.06 0 4.69 -0.32 0.06 0 4.89 -0.19 0.06 0 4.82 -0.06 0.13 0 4.81 0.06 0.06 0 4.89 0.19 0.06 0 4.69 0.32 0.06 0 4.69 0.39 0.06 0 4.76 0.58 0 0 4.56 0.64 0 0 4.56 0.77 0.06 0 4.56 0.9 0 0 4.38 1.02 0.12 0 4.38 1.1 0 0c2.82,0.83 5.78,1.67 8.61,2.57l0 0 4.18 1.48c43.2,15.68 75.92,48.92 94.95,94.56l0 0c3.66,8.87 6.88,18.12 9.45,27.83l0 0.06 1.35 4.89 0 0c1.22,4.95 2.31,9.96 3.22,15.1l0 0 0.89 5.14 0 0.06c0.65,3.41 1.03,6.94 1.55,10.48l0 0.06 0.64 5.34 0 0 0.45 5.4 0.06 0.06 0.39 5.47 0 0 0.39 5.52 0 0.06 0.26 5.6 0 0 0.13 5.65 0 0 0.12 5.72c0,7.91 -0.25,15.62 -0.89,23.2l0 0c-0.19,3.79 -0.52,7.52 -0.9,11.18l0 0 -0.64 5.53 0 0c-0.45,3.66 -0.9,7.26 -1.55,10.86l0 0 -0.89 5.27 0 0c-0.9,5.27 -2,10.47 -3.22,15.49l0 0 -1.35 5.01 0 0c-2.57,10.03 -5.79,19.54 -9.45,28.61l0 0c-27.07,66.4 -81.64,106.96 -154.59,106.96 -26.49,0 -50.59,-5.33 -71.74,-15.36l0 0c-2.64,-1.29 -5.33,-2.57 -7.77,-3.98l-0.06 0 -3.8 -2.13 0 -0.06 -3.79 -2.19 0 -0.06 -3.6 -2.31 0 0 -3.66 -2.5 0 0 -3.54 -2.51 0 -0.06 -3.47 -2.64zm-608.02 -134.54l61.7 70.84 177.29 203.57 122.9 0 0 -0.06 0 0 0 -65.63 -79 -90.31 -150.8 -172.27 206.27 -239.89 0 -63.12 -110.3 0 0 0 0 0 -228.06 271 0 -271 -139.68 0 0 631.29 139.68 0 0 -274.41zm776.88 280.77c5.27,-1.02 10.6,-2.18 15.75,-3.47l-15.75 3.47zm15.75 -3.47c5.27,-1.23 10.42,-2.64 15.42,-4.18l-15.42 4.18zm30.47 -9c4.89,-1.81 9.77,-3.67 14.53,-5.6l-14.53 5.6zm3689.71 -1058.04l0 0 139.81 0 0 -631.29 -0.38 0 -217.71 0 -0.32 0 -6.5 0.06 -0.19 0 -6.43 0.19c-137.17,4.56 -223.37,80.99 -223.37,201.77 0,82.47 49.62,144.76 116.92,170.02l-140.45 193.55 0 65.69 0.39 0 0 0 115.96 0 157.62 -227.23 64.28 0 0 227.23 0.39 0zm-77.39 -339.27c-60.68,0 -97.64,-36.96 -97.64,-89.21 0,-51.3 35.42,-86.65 97.64,-86.65l79.64 0 0 175.86 -79.64 0zm-791.47 339.27l47.89 -133.83 240.14 0 48.72 133.83 0.65 0 120.53 0 0.77 0 0 -67.31 -213.79 -564.05 -142.32 0 0 0.06 -0.64 0 -214.63 572.35 0 58.95 0.71 0 111.26 0 0.71 0zm86.65 -248.31l82.15 -231.35 82.15 231.35 -164.3 0zm-678.79 248.31l0.97 0 0 -265.16 246.38 0 0 265.16 1.16 0 138.65 0 0.96 0 0 -631.36 -139.61 0 0 0.06 -1.16 0 0 248.31 -246.38 0 0 -248.38 -139.68 0 0 0.06 -1.09 0 0 631.29 1.09 0 138.72 0zm-423.54 0l0 0 139.81 0 0 -631.29 -0.64 0 -217.4 0 -0.51 0 -6.24 0.06c-141.15,2.18 -230.37,79.19 -230.37,201.97 0,82.47 49.75,144.76 116.99,170.02l-140.45 193.55 0 65.69 0.52 0 0 0 116.15 0 157.49 -227.23 64.15 0 0 227.23 0.52 0zm-77.39 -339.27c-60.68,0 -97.64,-36.96 -97.64,-89.21 0,-51.3 35.35,-86.65 97.64,-86.65l79.45 0 0 175.86 -79.45 0zm-499.52 339.27l0.58 0 0 -512.57 180.88 0 0 -118.79 -500.74 0 0 0.06 -0.45 0 0 118.72 0.45 0 0 0 179.59 0 0 512.57 0.45 0 139.23 0zm-633.47 8.35l0.39 0 0 -66.47c5.21,-0.13 10.34,-0.32 15.55,-0.64l7.14 -0.52 0.45 -0.06c2.38,-0.19 4.82,-0.45 7.07,-0.71 150.55,-15.75 247.54,-125.34 247.54,-256.47 0,-136.34 -103.56,-249.6 -262.71,-259.43 -2.44,-0.13 -4.82,-0.26 -7.26,-0.39l-0.39 0 -7.39 -0.19 0 -0.06 0 -63.12 -0.39 0 -139.35 0 -0.45 0 0 63.12c-167.52,3.4 -277.69,118.72 -277.69,258.4 0,140.58 110.18,256.74 277.69,260.08l0 66.53 139.81 0 0 -0.06zm-151.83 -180.05c-82.92,-8.68 -127.98,-71.03 -127.98,-146.56 0,-78.03 49.42,-142.76 140,-146.36l0 293.76 -4.24 -0.26 -3.67 -0.26 -0.52 0 -3.6 -0.32zm152.21 1.6l0 -293.69 4.24 0.26 3.66 0.25c85.56,6.94 132.16,70.13 132.16,146.76 0,78.16 -49.43,142.89 -140.06,146.43zm-489.3 170.09l0.06 0 0 -118.67 -0.06 0 0 0 -256.61 0 0 -150.67 227.29 0 0 -109.47 -0.13 0 0 0 -227.16 0 0 -133.77 256.67 0 0 -118.79 -396.35 0 0 0.06 -0.13 0 0 631.29 0.13 0 396.29 0zm-541.88 -631.29l0 -0.06 -139.61 0 0 0.06 0 248.31 -247.47 0 0 -248.31 -0.06 0 0 -0.06 -139.62 0 0 0.06 0 631.29 139.62 0 0.06 0 0 -265.16 247.47 0 0 265.16 139.61 0 0 0 0 -631.29zm4615.98 -432.86l0 0 139.81 0 0 -631.29 -0.26 0 -217.78 0 -0.13 0 -6.62 0.06 -0.19 0 -6.55 0.19 -0.06 0 -6.55 0.25 -0.06 0 -6.37 0.39 -0.06 0 -6.43 0.52 -0.06 0 -6.17 0.65c-122,12.85 -197.4,87.04 -197.4,199.97 0,82.47 49.69,144.76 116.99,170.02l-140.45 193.54 0 65.69 0.06 0 0 0 116.16 0 157.48 -227.29 64.54 0 0 227.29 0.13 0zm-77.46 -339.27c-60.61,0 -97.58,-36.96 -97.58,-89.22 0,-51.29 35.35,-86.65 97.58,-86.65l79.9 0 0 175.87 -79.9 0zm-743.01 205.44l240.4 0 48.79 133.83 0.25 0 120.91 0 0.26 0 0 -67.36 -213.73 -563.92 -0.32 0 0 -0.06 -142.18 0 -214.69 572.34 0 59.01 0.31 0 111.66 0 0.26 0 48.08 -133.83zm203.38 -114.48l-164.74 0 82.34 -231.92 82.41 231.92zm-426.3 248.25l0.13 0 0 -65.63 -197.72 -225.87 -32.15 -36.71 68.72 -79.96 137.49 -159.92 0 -63.12 -110.3 0 -228.06 271 0 -271 0 0 0 0 -139.68 0 0 631.29 139.68 0 0 -0.06 0 0 0 -274.35 238.99 274.41 122.9 0 0 -0.06zm-854.92 12.67l0 0c2.38,0 4.89,0 7.33,-0.06l0 0 7.07 -0.19 0 0 7.07 -0.26 0 0 6.88 -0.45 0 0 6.88 -0.52 0 0 6.69 -0.64 0 0c17.61,-1.87 34,-4.89 49.17,-8.81l0 0c7.64,-1.99 14.97,-4.18 21.98,-6.55l0 0c80.42,-27.57 121.29,-81.7 131,-118.01l0 -64.03 -110.3 0c-4.37,18.32 -26.35,54.12 -74.63,70.97l0 0c-2.96,1.02 -6.17,1.99 -9.38,2.89l0 0 -3.14 0.84 -0.06 0.06 -3.35 0.77 -0.06 0 -3.28 0.7 -0.12 0.06 -3.35 0.65 -0.13 0 -3.47 0.65 -3.66 0.52 0 0 -3.6 0.51 -0.13 0 -3.67 0.45 -0.06 0 -3.79 0.32 -0.06 0 -3.85 0.26 0 0 -3.93 0.19 -0.19 0 -3.98 0.13 -0.06 0 -3.98 0.06c-104.46,0 -170.92,-82.54 -170.92,-209.56 0,-129.65 66.46,-208.78 170.92,-208.78l4.05 0.06 0.19 0 4.05 0.06 0 0.06 3.98 0.13 0.13 0 3.8 0.26 0.13 0 3.85 0.32 0.06 0 3.67 0.39 0.06 0 3.67 0.45 0.06 0.06 3.53 0.51 0.06 0 3.47 0.58 0.06 0 3.4 0.65 0.06 0 3.41 0.71 0 0 3.34 0.7 0 0 3.22 0.84 0.06 0 3.09 0.84 0 0.06c7.33,2.06 14.01,4.56 19.99,7.32l0.13 0c37.41,17.23 52.91,46.16 56.31,62.61l110.18 0 0 -64.03c-0.77,-3.22 -1.86,-6.75 -3.35,-10.47l0 0 -0.89 -2.26 0 -0.06 -0.9 -2.31 -0.06 0 -1.02 -2.37 0 0 -1.16 -2.38 0 -0.06 -1.22 -2.44 -0.06 0 -1.35 -2.51 0 0c-0.89,-1.68 -1.8,-3.41 -2.89,-5.14l0 0 -1.61 -2.57 0 0c-1.09,-1.73 -2.25,-3.54 -3.47,-5.27l0 -0.06c-1.29,-1.73 -2.57,-3.53 -3.86,-5.33l0 0 -2.18 -2.7 0 -0.06 -2.06 -2.7 -0.06 0 -2.25 -2.7 0 0 -2.38 -2.77 0 0 -2.57 -2.7 0 0 -2.51 -2.76 0 0c-35.29,-36.45 -98.73,-71.61 -203.96,-71.61 -69.74,0 -130.61,18.32 -179.47,51.68l-0.06 0c-6.04,4.18 -11.89,8.61 -17.61,13.24l-0.06 0c-1.86,1.55 -3.8,3.09 -5.72,4.69 -1.86,1.61 -3.6,3.22 -5.47,4.82l0 0.06c-1.86,1.61 -3.6,3.28 -5.39,4.95l-0.06 0.06c-1.67,1.67 -3.47,3.41 -5.14,5.14l-0.13 0c-1.67,1.73 -3.34,3.47 -5.08,5.27l0 0c-1.67,1.8 -3.27,3.6 -4.95,5.46l0 0c-1.67,1.87 -3.27,3.73 -4.89,5.6l0 0c-1.54,1.86 -3.14,3.79 -4.69,5.72l0 0c-1.54,1.93 -3.08,3.92 -4.63,5.91l0 0c-4.43,5.91 -8.8,12.09 -12.85,18.38l0 0.06c-1.29,2.12 -2.7,4.24 -3.92,6.36l0 0c-1.42,2.18 -2.7,4.38 -3.86,6.56l0 0c-1.28,2.25 -2.57,4.43 -3.79,6.68l0 0.06c-1.23,2.18 -2.38,4.5 -3.54,6.75l0 0.06c-1.15,2.25 -2.31,4.56 -3.4,6.88l0 0.06c-1.03,2.31 -2.12,4.69 -3.22,7.07l0 0c-1.09,2.38 -2.06,4.76 -3.14,7.2l0 0c-0.9,2.38 -1.94,4.82 -2.83,7.33l-0.13 0c-0.9,2.44 -1.8,4.89 -2.77,7.39l0 0c-1.73,5.01 -3.47,10.09 -5.08,15.3l0 0c-0.77,2.57 -1.54,5.14 -2.31,7.78l0 0c-0.65,2.63 -1.35,5.26 -2.06,7.97l0 0c-1.41,5.27 -2.7,10.67 -3.85,16.13l0 0c-0.52,2.77 -1.16,5.53 -1.61,8.3l0 0c-1.54,8.35 -2.82,16.84 -3.92,25.45l0 0c-2.18,17.35 -3.28,35.29 -3.28,53.8 0,87.74 23.66,163.33 67.63,219.84l0 0c4.56,5.85 9.26,11.51 14.26,16.91l0 0c3.35,3.6 6.69,7.14 10.22,10.54 3.47,3.47 7.14,6.81 10.74,10.03l0.06 0c1.87,1.6 3.73,3.22 5.66,4.76 1.8,1.54 3.72,3.09 5.66,4.63 1.93,1.48 3.92,2.96 5.85,4.43 1.99,1.48 4.05,2.96 6.11,4.31 1.93,1.42 3.98,2.83 6.1,4.18 2.06,1.35 4.11,2.7 6.3,3.99 2.06,1.35 4.24,2.64 6.37,3.85 2.18,1.29 4.31,2.51 6.55,3.67l0 0c2.25,1.22 4.5,2.38 6.62,3.53l0.06 0c2.25,1.16 4.56,2.25 6.81,3.35l0 0c4.63,2.18 9.26,4.24 14.01,6.23 2.38,0.97 4.76,1.93 7.14,2.83l0 0c4.89,1.86 9.77,3.6 14.79,5.21l0 0c5.01,1.6 10.09,3.08 15.36,4.43l0 0.06c28.41,7.51 59.4,11.51 92.62,11.51zm-684.31 -12.6l0.19 0 139.48 0 0.32 0 0 -512.56 180.56 0 0 -0.06 0.32 0 0 -118.66 -0.32 0 0 -0.06 -500.74 0 0 118.79 180.18 0 0 512.56zm-540.72 0l298.77 -568.16 0 -63.19 -110.18 0 0 0.06 -0.06 0 -147.26 294.53 -155.62 -294.59 -122.97 0 0 0.06 -0.06 0 0 65.69 178.38 330.65 22.82 42.17 -74.11 129.65 0 63.12 0.06 0 110.24 0zm-288.49 -0.06l0.19 0 0 -65.63 -229.8 -262.58 206.14 -239.95 0 -63.06 -0.13 0 0 0 -110.3 0 -227.87 270.74 0 -270.74 -0.12 0 0 0 -139.81 0 0 631.29 139.81 0 0 -0.06 0.12 0 0 -274.09 238.8 274.15 122.97 0 0 -0.06zm-907.18 -206.14l63.07 0c53.09,0 97.51,-11.44 133.25,-30.66l0 -0.06c1.67,-0.89 3.4,-1.8 5.07,-2.77l0 0 4.95 -2.89 0 -0.06c1.61,-0.97 3.22,-1.93 4.76,-2.96l0 -0.06c1.61,-0.97 3.15,-2.06 4.69,-3.09l4.63 -3.14 0 -0.06 4.37 -3.28 0 0 4.31 -3.4 0.13 0 4.11 -3.47 0.06 0 4.11 -3.6 0 0 3.92 -3.67 0.06 0 3.8 -3.72 0 0 3.79 -3.8 0.06 -0.06c1.23,-1.28 2.38,-2.57 3.54,-3.85l3.47 -3.98 0.06 -0.06c4.63,-5.34 8.93,-10.87 12.86,-16.58l0 -0.06c24.81,-35.87 37.28,-78.49 37.28,-121.87 0,-29.76 -5.14,-57.02 -15.04,-81.25l0 -0.06 -2.06 -4.76 0 0c-0.58,-1.61 -1.35,-3.15 -2.06,-4.76l0 0 -2.31 -4.63 0 -0.06 -2.38 -4.5 0 -0.06c-0.9,-1.48 -1.73,-2.96 -2.57,-4.43l0 0c-0.84,-1.48 -1.67,-2.96 -2.64,-4.38l0 -0.06c-38.64,-62.48 -114.03,-98.98 -214.24,-98.98l-202.68 0 0 0.06 -0.06 0 0 631.29 0.06 0 139.61 0 0 0 0 -206.21zm2312.72 202.81c5.01,1.6 10.09,3.08 15.36,4.43l-15.36 -4.43zm-2315.16 -318.96l0 -192.78 64.73 0c32.2,0 57.72,9.26 75.4,24.87l0 0c18.96,16.58 28.99,40.37 28.99,67.69 0,13.11 -1.86,25.26 -5.59,36.25l-0.77 2.31 0 0c-0.84,2.31 -1.73,4.63 -2.77,6.81l-0.89 2.18 -0.06 0 -1.1 2.12 0 0.06 -1.1 2.12 -0.06 0c-1.87,3.47 -3.93,6.82 -6.24,9.97l-1.48 1.93 0 0c-1.93,2.44 -3.93,4.82 -6.18,7.07l0 0c-12.53,12.99 -29.31,22.12 -49.62,26.49l0 0c-8.88,1.86 -18.45,2.89 -28.54,2.89l-64.73 0z"/>
  <path class="fil2" d="M13037.82 2855.74c-558.14,-705.59 -1373.26,-574.53 -1808.37,-60.61 -3.15,34.2 -5.92,68.52 -8.23,103.1l0 490.26c13.43,201.32 43.26,397.44 87.93,586.48 5.4,22.95 43.07,27.26 46.35,3.86 78.03,-549.92 672.04,-1011.57 1381.75,-836.86 288.55,71.03 589.13,341 706.83,826.38 22.17,-1.54 44.67,-2.77 66.91,-4.11 -76.3,-483.19 -272.23,-854.53 -473.16,-1108.5zm-1389.27 -1497.39c-159.54,269.27 -284.12,568.62 -365.82,889.11 -6.11,23.72 22.88,40.95 40.43,23.85 504.6,-492.13 1412.61,-357.78 1930.83,640.35 190.26,366.78 256.21,608.53 320.37,1048.66 21.86,-1.09 43.84,-1.86 65.69,-2.76 -134.8,-1601.98 -836.6,-2914.38 -1991.51,-2599.21zm1960.84 849.45c-158.7,-1007.71 -444.43,-1559.62 -1086.71,-1781.25 -200.81,138.59 -385.03,305.84 -548.11,497.2 -13.05,15.3 -2.64,39.15 17.49,40.05 669.54,27.39 1121.68,443.53 1401.87,1285.46 146.3,439.61 275.69,1153.11 312.14,1705.79 21.66,-0.58 43.13,-1.55 64.73,-1.99 -32.65,-688.69 -87.1,-1273.7 -161.41,-1745.26zm24.55 -2207.81c-225.87,28.35 -443.52,88.45 -649.41,176.51 -17.49,7.39 -20.12,31.49 -4.5,42.23 760.43,520.34 783.24,1958.92 856.59,3733.42 21.79,-0.26 43.58,-0.71 65.5,-0.77 -32.27,-2292.65 -33.49,-3192.7 -268.18,-3951.39zm3006.35 2795.13c-434.98,-513.91 -1250.17,-644.98 -1808.31,60.61 -200.81,253.97 -396.74,625.31 -473.03,1108.5 22.3,1.35 44.61,2.57 66.98,4.11 117.5,-485.38 422.26,-740.76 706.82,-826.38 661.76,-199.01 1320.88,278.78 1381.56,836.86 2.51,23.58 40.95,19.08 46.54,-3.86 45.9,-194.83 76.11,-397.05 89.03,-604.87l0 -453.43c-2.57,-40.68 -5.65,-81.25 -9.58,-121.55zm-2024.42 116.54c518.22,-998.19 1426.24,-1132.41 1930.76,-640.35 17.55,17.17 46.54,-0.19 40.43,-23.85 -81.7,-320.56 -206.08,-619.78 -365.82,-889.11 -1154.9,-315.23 -1856.65,997.3 -1991.51,2599.21 21.86,0.96 43.9,1.67 65.69,2.82 64.21,-440.12 130.16,-682 320.43,-1048.72zm-140 -662.4c280.19,-841.93 732.4,-1258.07 1402,-1285.46 20.18,-0.89 30.53,-24.74 17.36,-40.05 -163.08,-191.29 -347.31,-358.67 -548.11,-497.13 -642.28,221.63 -928.01,773.47 -1086.78,1781.18 -74.31,471.56 -128.62,1056.5 -161.28,1745.19 21.66,0.51 43.13,1.41 64.73,2.12 36.39,-552.68 165.84,-1266.18 312.08,-1705.86zm413.96 -2030.58c15.62,-10.67 12.92,-34.78 -4.37,-42.23 -205.95,-88 -423.6,-148.1 -649.48,-176.45l-0.13 0c-234.61,758.63 -235.84,1658.74 -268.11,3951.45 21.79,0.06 43.64,0.45 65.63,0.77 73.15,-1774.63 96.03,-3213.14 856.46,-3733.55z"/>
 </g>
</svg>
